
<svg version="1.0" xmlns="http://www.w3.org/2000/svg"
 viewBox="0 0 1167 1167"
 preserveAspectRatio="xMidYMid meet">

<g transform="translate(0,1167.000000) scale(0.100000,-0.100000)"
 stroke="none" fill="#fff">
<path d="M7281 8650 c-266 -1565 -487 -2849 -491 -2853 -4 -4 -432 580 -951
1299 -601 832 -945 1300 -946 1288 -657 -5107 -1053 -8208 -1051 -8215 2 -5
374 1140 827 2545 453 1405 827 2559 830 2564 3 5 471 -582 1040 -1305 569
-722 1037 -1311 1040 -1308 5 6 192 8695 188 8780 -1 31 -186 -1031 -486
-2795z"/>
</g>
</svg>
